The Hole (2011)(DivX)(nl subs)

***** Vanaf 10 februari 2011 in de bioscoop *****
***** From February 10, 2011 at the cinema *****
 

Verenigde Staten
Thriller
98 minuten

geregisseerd door Joe Dante
met Chris Massoglia, Haley Bennett en Nathan Gamble

Susan verhuist met haar twee tienerzoons naar een landelijk huis. Wanneer de twee broers in de kelder een geheime deur ontdekken, 
welk naar een donker, bodemloos hol leidt, realiseren ze zich dat het een doorgang is naar hun duisterste nachtmerries en angsten.


Storyline

A pair of brothers stumble upon a mysterious hole in their basement that leads to the darkest corridors of their fears and nightmares. 



Info :

XVID...............: 1 CD (700 mb)
Movie..............: Hole, The (2011) 
genre..............: Thriller
Source.............: The Hole DVDRip XviD-NeDiVx
Runtime............: 98 min.
Menu...............: Nope
Audio..............: Eng: DD 2.0 
Subtitles..........: Vertaald door Badgast, Chronicle en Suurtje
Controle...........: Suurtje
Categorie..........: Beeld 
Formaat............: DivX 
Subs...............: Dutch (hardcoded) 
Ondertitels........: Nederlands (ingebakken)
Thanks.............: Paramitas4all

Format                           : AVI
Format/Info                      : Audio Video Interleave
File size                        : 697 MiB
Duration                         : 1h 28mn
Overall bit rate                 : 1 097 Kbps


Video
ID                               : 0
Format                           : MPEG-4 Visual
Format profile                   : Advanced Simple@L5
Format settings, BVOP            : Yes
Format settings, QPel            : No
Format settings, GMC             : No warppoints
Format settings, Matrix          : Default (H.263)
Muxing mode                      : Packed bitstream
Codec ID                         : XVID
Codec ID/Hint                    : XviD
Duration                         : 1h 28mn
Bit rate                         : 960 Kbps
Width                            : 608 pixels
Height                           : 336 pixels
Display aspect ratio             : 16:9
Frame rate                       : 25.000 fps
Color space                      : YUV
Chroma subsampling               : 4:2:0
Bit depth                        : 8 bits
Scan type                        : Progressive
Bits/(Pixel*Frame)               : 0.188
Stream size                      : 609 MiB (87%)
Writing library                  : XviD 1.2.0.dev47 (UTC 2006-11-01)

Audio
ID                               : 1
Format                           : MPEG Audio
Format version                   : Version 1
Format profile                   : Layer 3
Mode                             : Joint stereo
Mode extension                   : MS Stereo
Codec ID                         : 55
Codec ID/Hint                    : MP3
Duration                         : 1h 28mn
Bit rate mode                    : Constant
Bit rate                         : 128 Kbps
Channel(s)                       : 2 channels
Sampling rate                    : 48.0 KHz
Stream size                      : 81.3 MiB (12%)
Alignment                        : Aligned on interleaves
Interleave, duration             : 40 ms (1.00 video frame)
Interleave, preload duration     : 504 ms
Writing library                  : LAME3.97 
Encoding settings                : -m j -V 4 -q 2 -lowpass 17 -b 128
 
http://www.moviemeter.nl/film/58147 
http://www.imdb.com/title/tt1085779


*****************************************

Brought to you by 
2Lions Team

